<mxfile host="app.diagrams.net" agent="Mozilla/5.0 (Windows NT 10.0; Win64; x64) AppleWebKit/537.36 (KHTML, like Gecko) Chrome/131.0.0.0 Safari/537.36" version="26.0.4">
  <diagram name="Page-1" id="SckIbm1Qw3eFDjyEtP1A">
    <mxGraphModel dx="794" dy="412" grid="1" gridSize="10" guides="1" tooltips="1" connect="1" arrows="1" fold="1" page="1" pageScale="1" pageWidth="2300" pageHeight="2300" math="0" shadow="0">
      <root>
        <mxCell id="0" />
        <mxCell id="1" parent="0" />
        <mxCell id="lDcpKYnPJLl7WVR2dZTZ-2" value="Text" style="text;html=1;align=center;verticalAlign=middle;resizable=0;points=[];autosize=1;strokeColor=none;fillColor=none;" vertex="1" parent="1">
          <mxGeometry x="305" y="28" width="50" height="30" as="geometry" />
        </mxCell>
        <mxCell id="lDcpKYnPJLl7WVR2dZTZ-3" value="Buyer" style="shape=umlActor;verticalLabelPosition=bottom;verticalAlign=top;html=1;outlineConnect=0;" vertex="1" parent="1">
          <mxGeometry x="100" y="90" width="30" height="60" as="geometry" />
        </mxCell>
        <mxCell id="lDcpKYnPJLl7WVR2dZTZ-10" style="edgeStyle=orthogonalEdgeStyle;rounded=0;orthogonalLoop=1;jettySize=auto;html=1;entryX=0;entryY=0.25;entryDx=0;entryDy=0;" edge="1" parent="1" source="lDcpKYnPJLl7WVR2dZTZ-21" target="lDcpKYnPJLl7WVR2dZTZ-5">
          <mxGeometry relative="1" as="geometry" />
        </mxCell>
        <mxCell id="lDcpKYnPJLl7WVR2dZTZ-4" value="Payment service" style="rounded=1;whiteSpace=wrap;html=1;" vertex="1" parent="1">
          <mxGeometry x="320" y="100" width="120" height="60" as="geometry" />
        </mxCell>
        <mxCell id="lDcpKYnPJLl7WVR2dZTZ-5" value="Amazon bank" style="rounded=1;whiteSpace=wrap;html=1;" vertex="1" parent="1">
          <mxGeometry x="650" y="110" width="120" height="60" as="geometry" />
        </mxCell>
        <mxCell id="lDcpKYnPJLl7WVR2dZTZ-11" style="edgeStyle=orthogonalEdgeStyle;rounded=0;orthogonalLoop=1;jettySize=auto;html=1;entryX=0;entryY=0.5;entryDx=0;entryDy=0;" edge="1" parent="1" source="lDcpKYnPJLl7WVR2dZTZ-6" target="lDcpKYnPJLl7WVR2dZTZ-8">
          <mxGeometry relative="1" as="geometry" />
        </mxCell>
        <mxCell id="lDcpKYnPJLl7WVR2dZTZ-6" value="Amzzon bank" style="rounded=1;whiteSpace=wrap;html=1;" vertex="1" parent="1">
          <mxGeometry x="90" y="270" width="120" height="60" as="geometry" />
        </mxCell>
        <mxCell id="lDcpKYnPJLl7WVR2dZTZ-7" value="Actor" style="shape=umlActor;verticalLabelPosition=bottom;verticalAlign=top;html=1;outlineConnect=0;" vertex="1" parent="1">
          <mxGeometry x="710" y="258" width="30" height="60" as="geometry" />
        </mxCell>
        <mxCell id="lDcpKYnPJLl7WVR2dZTZ-12" style="edgeStyle=orthogonalEdgeStyle;rounded=0;orthogonalLoop=1;jettySize=auto;html=1;" edge="1" parent="1" target="lDcpKYnPJLl7WVR2dZTZ-7">
          <mxGeometry relative="1" as="geometry">
            <mxPoint x="610" y="298" as="sourcePoint" />
          </mxGeometry>
        </mxCell>
        <mxCell id="lDcpKYnPJLl7WVR2dZTZ-8" value="Payment service" style="rounded=1;whiteSpace=wrap;html=1;" vertex="1" parent="1">
          <mxGeometry x="330" y="270" width="120" height="60" as="geometry" />
        </mxCell>
        <mxCell id="lDcpKYnPJLl7WVR2dZTZ-9" style="edgeStyle=orthogonalEdgeStyle;rounded=0;orthogonalLoop=1;jettySize=auto;html=1;entryX=0.083;entryY=0.333;entryDx=0;entryDy=0;entryPerimeter=0;" edge="1" parent="1" source="lDcpKYnPJLl7WVR2dZTZ-3" target="lDcpKYnPJLl7WVR2dZTZ-4">
          <mxGeometry relative="1" as="geometry" />
        </mxCell>
        <mxCell id="lDcpKYnPJLl7WVR2dZTZ-17" value="Seller" style="text;html=1;align=center;verticalAlign=middle;resizable=0;points=[];autosize=1;strokeColor=none;fillColor=none;" vertex="1" parent="1">
          <mxGeometry x="625" y="318" width="50" height="30" as="geometry" />
        </mxCell>
        <mxCell id="lDcpKYnPJLl7WVR2dZTZ-18" value="pay In flow" style="text;html=1;align=center;verticalAlign=middle;resizable=0;points=[];autosize=1;strokeColor=none;fillColor=none;" vertex="1" parent="1">
          <mxGeometry x="110" y="48" width="80" height="30" as="geometry" />
        </mxCell>
        <mxCell id="lDcpKYnPJLl7WVR2dZTZ-19" value="Flow out" style="text;html=1;align=center;verticalAlign=middle;resizable=0;points=[];autosize=1;strokeColor=none;fillColor=none;" vertex="1" parent="1">
          <mxGeometry x="85" y="238" width="70" height="30" as="geometry" />
        </mxCell>
        <mxCell id="lDcpKYnPJLl7WVR2dZTZ-20" value="pay out flow" style="text;html=1;align=center;verticalAlign=middle;resizable=0;points=[];autosize=1;strokeColor=none;fillColor=none;" vertex="1" parent="1">
          <mxGeometry x="105" y="208" width="90" height="30" as="geometry" />
        </mxCell>
        <mxCell id="lDcpKYnPJLl7WVR2dZTZ-22" value="" style="edgeStyle=orthogonalEdgeStyle;rounded=0;orthogonalLoop=1;jettySize=auto;html=1;entryX=0;entryY=0.25;entryDx=0;entryDy=0;" edge="1" parent="1" source="lDcpKYnPJLl7WVR2dZTZ-4" target="lDcpKYnPJLl7WVR2dZTZ-21">
          <mxGeometry relative="1" as="geometry">
            <mxPoint x="440" y="130" as="sourcePoint" />
            <mxPoint x="650" y="125" as="targetPoint" />
          </mxGeometry>
        </mxCell>
        <mxCell id="lDcpKYnPJLl7WVR2dZTZ-21" value="payment gatwway" style="rounded=1;whiteSpace=wrap;html=1;" vertex="1" parent="1">
          <mxGeometry x="490" y="100" width="120" height="60" as="geometry" />
        </mxCell>
        <mxCell id="lDcpKYnPJLl7WVR2dZTZ-24" value="" style="edgeStyle=orthogonalEdgeStyle;rounded=0;orthogonalLoop=1;jettySize=auto;html=1;" edge="1" parent="1" source="lDcpKYnPJLl7WVR2dZTZ-8">
          <mxGeometry relative="1" as="geometry">
            <mxPoint x="450" y="300" as="sourcePoint" />
            <mxPoint x="630" y="298" as="targetPoint" />
          </mxGeometry>
        </mxCell>
        <mxCell id="lDcpKYnPJLl7WVR2dZTZ-25" value="Direct deposit system" style="text;html=1;align=center;verticalAlign=middle;resizable=0;points=[];autosize=1;strokeColor=none;fillColor=none;" vertex="1" parent="1">
          <mxGeometry x="500" y="268" width="140" height="30" as="geometry" />
        </mxCell>
      </root>
    </mxGraphModel>
  </diagram>
</mxfile>
